<svg xmlns="http://www.w3.org/2000/svg" width="642" height="252" fill="none" viewBox="0 0 642 252"><path fill="url(#paint0_linear_146_2350)" fill-opacity=".3" d="M0 7C0 3.13401 3.13401 0 7 0H635C638.866 0 642 3.13401 642 7V245C642 248.866 638.866 252 635 252H6.99999C3.134 252 0 248.866 0 245V7Z"/><path stroke="#fff" stroke-opacity=".2" d="M0.5 7C0.5 3.41015 3.41015 0.5 7 0.5H635C638.59 0.5 641.5 3.41015 641.5 7V245C641.5 248.59 638.59 251.5 635 251.5H6.99999C3.41014 251.5 0.5 248.59 0.5 245V7Z"/><defs><linearGradient id="paint0_linear_146_2350" x1="321" x2="321" y1="0" y2="252" gradientUnits="userSpaceOnUse"><stop stop-color="#2E335A"/><stop offset="1" stop-color="#1C1B33"/></linearGradient></defs></svg>