<svg xmlns="http://www.w3.org/2000/svg" width="200" height="165" fill="none" viewBox="0 0 200 165"><g filter="url(#filter0_d_146_2369)"><path fill="#393D5E" fill-rule="evenodd" d="M166 5.46515C162.287 3.32155 157.713 3.32155 154 5.46515L144.349 11.0369C140.637 13.1805 138.349 17.1421 138.349 21.4292V29H20C8.95431 29 0 37.9543 0 49V145C0 156.046 8.95431 165 20 165H180C191.046 165 200 156.046 200 145V49C200 38.5101 191.924 29.9064 181.651 29.0671V21.4292C181.651 17.1421 179.363 13.1805 175.651 11.0369L166 5.46515Z" clip-rule="evenodd"/></g><defs><filter id="filter0_d_146_2369" width="220" height="181.142" x="-10" y=".857" color-interpolation-filters="sRGB" filterUnits="userSpaceOnUse"><feFlood flood-opacity="0" result="BackgroundImageFix"/><feColorMatrix in="SourceAlpha" result="hardAlpha" type="matrix" values="0 0 0 0 0 0 0 0 0 0 0 0 0 0 0 0 0 0 127 0"/><feOffset dy="7"/><feGaussianBlur stdDeviation="5"/><feComposite in2="hardAlpha" operator="out"/><feColorMatrix type="matrix" values="0 0 0 0 0 0 0 0 0 0 0 0 0 0 0 0 0 0 0.1 0"/><feBlend in2="BackgroundImageFix" mode="normal" result="effect1_dropShadow_146_2369"/><feBlend in="SourceGraphic" in2="effect1_dropShadow_146_2369" mode="normal" result="shape"/></filter></defs></svg>