<svg width="200" height="165" viewBox="0 0 200 165" fill="none" xmlns="http://www.w3.org/2000/svg">
<g filter="url(#filter0_d_146_2369)">
<path fill-rule="evenodd" clip-rule="evenodd" d="M166 5.46515C162.287 3.32155 157.713 3.32155 154 5.46515L144.349 11.0369C140.637 13.1805 138.349 17.1421 138.349 21.4292V29H20C8.95431 29 0 37.9543 0 49V145C0 156.046 8.95431 165 20 165H180C191.046 165 200 156.046 200 145V49C200 38.5101 191.924 29.9064 181.651 29.0671V21.4292C181.651 17.1421 179.363 13.1805 175.651 11.0369L166 5.46515Z" fill="#393D5E"/>
</g>
<defs>
<filter id="filter0_d_146_2369" x="-10" y="0.857452" width="220" height="181.142" filterUnits="userSpaceOnUse" color-interpolation-filters="sRGB">
<feFlood flood-opacity="0" result="BackgroundImageFix"/>
<feColorMatrix in="SourceAlpha" type="matrix" values="0 0 0 0 0 0 0 0 0 0 0 0 0 0 0 0 0 0 127 0" result="hardAlpha"/>
<feOffset dy="7"/>
<feGaussianBlur stdDeviation="5"/>
<feComposite in2="hardAlpha" operator="out"/>
<feColorMatrix type="matrix" values="0 0 0 0 0 0 0 0 0 0 0 0 0 0 0 0 0 0 0.1 0"/>
<feBlend mode="normal" in2="BackgroundImageFix" result="effect1_dropShadow_146_2369"/>
<feBlend mode="normal" in="SourceGraphic" in2="effect1_dropShadow_146_2369" result="shape"/>
</filter>
</defs>
</svg>
