<svg xmlns="http://www.w3.org/2000/svg" width="147" height="183" fill="none" viewBox="0 0 147 183"><g filter="url(#filter0_d_147_10)"><path fill="#393D5E" fill-rule="evenodd" d="M165.053 28.0719L158 24.0001C153.05 21.1419 146.95 21.1419 142 24.0001L134.947 28.0719C129.997 30.93 126.947 36.212 126.947 41.9283V46H40C21.1438 46 11.7157 46 5.85786 51.8579C0 57.7158 0 67.1438 0 86V182H200V86C200 67.1438 200 57.7158 194.142 51.8579C189.828 47.544 183.578 46.407 173.053 46.1073V41.9283C173.053 36.212 170.003 30.93 165.053 28.0719ZM169.053 46.0313V41.9283C169.053 37.6411 166.765 33.6795 163.053 31.536L156 27.4642C152.287 25.3206 147.713 25.3206 144 27.4642L136.947 31.536C133.235 33.6795 130.947 37.6411 130.947 41.9283V46H160C163.295 46 166.302 46 169.053 46.0313Z" clip-rule="evenodd"/></g><defs><filter id="filter0_d_147_10" width="240" height="200.144" x="-20" y=".856" color-interpolation-filters="sRGB" filterUnits="userSpaceOnUse"><feFlood flood-opacity="0" result="BackgroundImageFix"/><feColorMatrix in="SourceAlpha" result="hardAlpha" type="matrix" values="0 0 0 0 0 0 0 0 0 0 0 0 0 0 0 0 0 0 127 0"/><feOffset dy="-1"/><feGaussianBlur stdDeviation="10"/><feComposite in2="hardAlpha" operator="out"/><feColorMatrix type="matrix" values="0 0 0 0 0 0 0 0 0 0 0 0 0 0 0 0 0 0 0.5 0"/><feBlend in2="BackgroundImageFix" mode="normal" result="effect1_dropShadow_147_10"/><feBlend in="SourceGraphic" in2="effect1_dropShadow_147_10" mode="normal" result="shape"/></filter></defs></svg>